Coordinates
version=1
nRows=9
nColumns=24
inDegrees=yes

Units are S.I. units (second, meters, Newtons, ...)
Angles are in degrees.

endheader
time	pelvis_tilt	pelvis_list	pelvis_rotation	pelvis_tx	pelvis_ty	pelvis_tz	hip_flexion_r	hip_adduction_r	hip_rotation_r	knee_angle_r	ankle_angle_r	subtalar_angle_r	mtp_angle_r	hip_flexion_l	hip_adduction_l	hip_rotation_l	knee_angle_l	ankle_angle_l	subtalar_angle_l	mtp_angle_l	lumbar_extension	lumbar_bending	lumbar_rotation
      1.37466667	     -0.29000191	      0.91026057	     -4.79005550	      0.45180156	      1.08296119	      0.31837642	     10.78199382	     -5.51725944	     -6.42024721	    -64.64029600	      2.09507550	     -1.40266997	      7.52656411	     10.14723507	      3.17734735	      0.29328011	    -18.12646319	      8.85540778	      1.68033947	      1.91475008	    -14.17552842	     -3.16996531	     -0.34099684
      1.37883333	     -0.27322929	      0.79106530	     -4.68270224	      0.45685244	      1.08398086	      0.31811304	     11.23559382	     -5.34935276	     -6.50089336	    -64.28116418	      2.44837406	     -1.11289280	      7.59051595	      9.60992280	      3.09301612	      0.41316143	    -17.68115427	      8.89131107	      1.72287968	      1.90355729	    -14.16287507	     -3.01744023	     -0.46593058
      1.38300000	     -0.25070786	      0.66421305	     -4.56930770	      0.46187901	      1.08499600	      0.31784589	     11.67341387	     -5.17120051	     -6.58782416	    -63.87708110	      2.80140759	     -0.83204020	      7.65675636	      9.06790638	      2.99886972	      0.53943667	    -17.23346926	      8.90303818	      1.76407197	      1.89251955	    -14.17028597	     -2.85469095	     -0.58017134
      1.38716667	     -0.22432554	      0.52590376	     -4.44616965	      0.46689479	      1.08595969	      0.31756193	     12.09476780	     -4.98123453	     -6.68399313	    -63.43119508	      3.14329139	     -0.55888082	      7.72058724	      8.52800714	      2.89079187	      0.66429691	    -16.79833951	      8.92670565	      1.81923858	      1.88377246	    -14.18529254	     -2.67506046	     -0.68845979
      1.39133333	     -0.21110431	      0.41328077	     -4.32594471	      0.47190788	      1.08684919	      0.31729454	     12.53034168	     -4.81927065	     -6.77636036	    -62.96193313	      3.49426274	     -0.28026736	      7.78614031	      8.00046607	      2.80781502	      0.79315216	    -16.35170287	      8.93548267	      1.85373193	      1.87500448	    -14.18068814	     -2.52689472	     -0.80817186
      1.39550000	     -0.21536923	      0.27721785	     -4.19250067	      0.47690959	      1.08766915	      0.31701653	     12.96903083	     -4.62571791	     -6.87694261	    -62.44510638	      3.82755759	     -0.04678961	      7.83049256	      7.50356781	      2.69389163	      0.91518368	    -15.92903677	      8.94172752	      1.92140227	      1.87015797	    -14.16551495	     -2.35288103	     -0.88870685
      1.39966667	     -0.19176661	      0.16669988	     -4.06058588	      0.48191593	      1.08848150	      0.31672277	     13.37408065	     -4.47364370	     -6.98810289	    -61.90404018	      4.15884902	      0.21954781	      7.89053306	      6.96577596	      2.61280173	      1.05902017	    -15.47876823	      8.97393046	      1.94723371	      1.86409802	    -14.16461426	     -2.19584277	     -1.03692522
      1.40383333	     -0.19440343	      0.05748774	     -3.92336268	      0.48690926	      1.08918278	      0.31643627	     13.80158811	     -4.31750236	     -7.09678229	    -61.33462726	      4.48593610	      0.44570657	      7.94783267	      6.46650760	      2.52805265	      1.19914656	    -15.04622856	      8.98875050	      1.97275286	      1.85881937	    -14.13858659	     -2.04114748	     -1.16362025
      1.40800000	     -0.21235415	     -0.05867296	     -3.78935931	      0.49191397	      1.08982604	      0.31617154	     14.23527908	     -4.14746757	     -7.20098016	    -60.72807793	      4.79411266	      0.58525781	      7.97506734	      5.98926654	      2.42610945	      1.29568619	    -14.62271628	      8.99139426	      2.05583675	      1.85675789	    -14.09172895	     -1.87103989	     -1.21666355
